<svg width="65" height="48" viewBox="0 0 65 48" xmlns="http://www.w3.org/2000/svg">
    <g fill="none" fill-rule="evenodd">
        <path fill="#005335" d="M3.201 37.44h31.996V10.88H3.2z"/>
        <path fill="#C9252B" d="M32.054 37.44h28.773V10.88H32.054z"/>
        <path fill="#FEFEFE" d="M6.91 30.805h50.255V17.432H6.911z"/>
        <path fill="#08223D" d="M7.325 30.39h49.43V17.847H7.326z"/>
        <g fill="#FEFEFE">
            <path d="M9.964 22.33h.154c.574 0 1.258.083 1.258.798 0 .74-.637.846-1.225.846h-.187V22.33zm0 2.155h.33c.876 0 1.624-.373 1.624-1.338 0-.843-.442-1.33-1.867-1.33h-.663v4.598h.576v-1.93zM12.47 26.415h2.487v-.53H13.04v-1.733h1.863v-.527H13.04V22.34h1.917v-.524H12.47zM16.962 22.34h1.093v-.523h-2.777v.524h1.102v4.074h.582zM18.55 26.415h2.487v-.53h-1.91v-1.733h1.854v-.527h-1.854V22.34h1.91v-.524H18.55zM22.37 22.33h.153c.57 0 1.26.102 1.26.822 0 .73-.637.84-1.227.84h-.185V22.33zm.844 2.082c.667-.077 1.11-.626 1.11-1.289 0-.437-.22-.868-.608-1.093-.368-.209-.816-.213-1.227-.213h-.699v4.598h.58v-1.944h.24l1.363 1.944h.703l-1.462-2.003zM26.605 26.415h2.492v-.53h-1.914v-1.733h1.856v-.527h-1.856V22.34h1.914v-.524h-2.492zM29.79 26.415h.584v-3.43l3.474 3.617v-4.785h-.581v3.396l-3.476-3.61zM37.102 24.096v.526h1.197c-.017.747-.791 1.36-1.51 1.36-1 0-1.799-.911-1.799-1.877 0-1.025.812-1.861 1.847-1.861.568 0 1.123.297 1.452.748l.408-.381a2.433 2.433 0 0 0-1.886-.895 2.41 2.41 0 0 0-2.402 2.408c0 1.278 1.047 2.39 2.341 2.39 1.3 0 2.193-.97 2.193-2.233v-.185h-1.841zM40.149 21.817h-.576v4.598h1.986v-.53h-1.41zM44.762 24.733h-1.646l.823-1.859.823 1.859zm.243.527.525 1.155h.62l-2.21-4.79-2.213 4.79h.624l.527-1.155h2.127zM46.535 26.415h.58v-3.43l3.475 3.617v-4.785h-.575v3.396l-3.48-3.61zM52.184 22.34h.203c1.175 0 2.197.436 2.197 1.772 0 1.334-1.022 1.773-2.197 1.773h-.203v-3.544zm-.581 4.075h.939c1.469 0 2.615-.76 2.615-2.326 0-1.523-1.176-2.272-2.597-2.272h-.957v4.598z"/>
        </g>
    </g>
</svg>
